<svg width="30" height="33" viewBox="0 0 30 33" fill="none" xmlns="http://www.w3.org/2000/svg">
<path d="M26.8241 27.0589L25.9044 28.2439C26.3567 28.595 26.9695 28.6579 27.4838 28.4061C27.9981 28.1542 28.3241 27.6316 28.3241 27.0589H26.8241ZM26.8241 5.92941H28.3241C28.3241 5.35677 27.9981 4.8341 27.4838 4.58226C26.9695 4.33042 26.3567 4.39335 25.9044 4.74446L26.8241 5.92941ZM13.213 16.4942L12.2933 15.3092C11.9272 15.5934 11.713 16.0308 11.713 16.4942C11.713 16.9576 11.9272 17.395 12.2933 17.6791L13.213 16.4942ZM28.3241 27.0589V5.92941H25.3241V27.0589H28.3241ZM25.9044 4.74446L12.2933 15.3092L14.1327 17.6791L27.7438 7.11435L25.9044 4.74446ZM12.2933 17.6791L25.9044 28.2439L27.7438 25.874L14.1327 15.3092L12.2933 17.6791ZM4.99079 28.1154V4.87293H1.99079V28.1154H4.99079Z" fill="#EAF0FF"/>
</svg>
