<svg width="21" height="21" viewBox="0 0 21 21" fill="none" xmlns="http://www.w3.org/2000/svg">
<path d="M6.50863 7.68836V6.68836C5.95634 6.68836 5.50863 7.13608 5.50863 7.68836H6.50863ZM6.50863 9.0217L7.21573 9.7288L7.50863 9.43591V9.0217H6.50863ZM4.23248 9.41222L3.52538 10.1193L3.52538 10.1193L4.23248 9.41222ZM9.17529 17.6884H10.1753V17.2742L9.8824 16.9813L9.17529 17.6884ZM7.84196 16.355H6.84196V16.7692L7.13485 17.0621L7.84196 16.355ZM7.84196 14.355H8.84196V13.9408L8.54907 13.6479L7.84196 14.355ZM6.50863 13.0217H5.50863V13.4359L5.80152 13.7288L6.50863 13.0217ZM6.50863 11.6884V10.6884C5.95634 10.6884 5.50863 11.1361 5.50863 11.6884H6.50863ZM12.1753 1.0217V3.68836H14.1753V1.0217H12.1753ZM11.842 4.0217H10.5086V6.0217H11.842V4.0217ZM7.84196 6.68836H6.50863V8.68836H7.84196V6.68836ZM5.50863 7.68836V9.0217H7.50863V7.68836H5.50863ZM5.80152 8.31459L5.41099 8.70512L6.82521 10.1193L7.21573 9.7288L5.80152 8.31459ZM4.93959 8.70512L2.54907 6.31459L1.13485 7.7288L3.52538 10.1193L4.93959 8.70512ZM8.17529 6.35503C8.17529 6.53913 8.02605 6.68836 7.84196 6.68836V8.68836C9.13062 8.68836 10.1753 7.6437 10.1753 6.35503H8.17529ZM10.5086 4.0217C9.21996 4.0217 8.17529 5.06637 8.17529 6.35503H10.1753C10.1753 6.17094 10.3245 6.0217 10.5086 6.0217V4.0217ZM5.41099 8.70512C5.28082 8.83529 5.06977 8.83529 4.93959 8.70511L3.52538 10.1193C4.4366 11.0306 5.91398 11.0306 6.82521 10.1193L5.41099 8.70512ZM12.1753 3.68836C12.1753 3.87246 12.0261 4.0217 11.842 4.0217V6.0217C13.1306 6.0217 14.1753 4.97703 14.1753 3.68836H12.1753ZM10.1753 19.6884V17.6884H8.17529V19.6884H10.1753ZM9.8824 16.9813L8.54907 15.6479L7.13485 17.0621L8.46819 18.3955L9.8824 16.9813ZM8.84196 16.355V14.355H6.84196V16.355H8.84196ZM8.54907 13.6479L7.21573 12.3146L5.80152 13.7288L7.13485 15.0621L8.54907 13.6479ZM7.50863 13.0217V11.6884H5.50863V13.0217H7.50863ZM6.50863 12.6884H11.842V10.6884H6.50863V12.6884ZM12.1753 13.0217V13.9106H14.1753V13.0217H12.1753ZM14.9531 16.6884H18.5086V14.6884H14.9531V16.6884ZM13.5086 15.2439C13.5086 16.0417 14.1553 16.6884 14.9531 16.6884V14.6884C15.2599 14.6884 15.5086 14.9371 15.5086 15.2439H13.5086ZM13.6197 15.355C13.5584 15.355 13.5086 15.3053 13.5086 15.2439H15.5086C15.5086 14.2007 14.6629 13.355 13.6197 13.355V15.355ZM12.1753 13.9106C12.1753 14.7083 12.822 15.355 13.6197 15.355V13.355C13.9266 13.355 14.1753 13.6038 14.1753 13.9106H12.1753ZM11.842 12.6884C12.0261 12.6884 12.1753 12.8376 12.1753 13.0217H14.1753C14.1753 11.733 13.1306 10.6884 11.842 10.6884V12.6884ZM10.5086 18.6884C5.90625 18.6884 2.17529 14.9574 2.17529 10.355H0.175293C0.175293 16.062 4.80168 20.6884 10.5086 20.6884V18.6884ZM18.842 10.355C18.842 14.9574 15.111 18.6884 10.5086 18.6884V20.6884C16.2156 20.6884 20.842 16.062 20.842 10.355H18.842ZM10.5086 2.0217C15.111 2.0217 18.842 5.75266 18.842 10.355H20.842C20.842 4.64809 16.2156 0.021698 10.5086 0.021698V2.0217ZM10.5086 0.021698C4.80168 0.021698 0.175293 4.64809 0.175293 10.355H2.17529C2.17529 5.75266 5.90625 2.0217 10.5086 2.0217V0.021698Z" fill="#8996B8" fill-opacity="0.6"/>
</svg>
