<svg width="19" height="19" viewBox="0 0 19 19" fill="none" xmlns="http://www.w3.org/2000/svg">
<path d="M9.59226 16.4308L8.88515 17.1379C9.07269 17.3255 9.32704 17.4308 9.59226 17.4308C9.85748 17.4308 10.1118 17.3255 10.2994 17.1379L9.59226 16.4308ZM2.4349 9.27345L1.72779 9.98055L1.72779 9.98055L2.4349 9.27345ZM8.4349 3.27345L7.72779 3.98056L7.72779 3.98056L8.4349 3.27345ZM9.59226 4.43081L8.88515 5.13791C9.07269 5.32545 9.32704 5.43081 9.59226 5.43081C9.85748 5.43081 10.1118 5.32545 10.2994 5.13791L9.59226 4.43081ZM10.7496 3.27345L10.0425 2.56634L10.0425 2.56634L10.7496 3.27345ZM10.2994 15.7237L3.14201 8.56634L1.72779 9.98055L8.88515 17.1379L10.2994 15.7237ZM16.0425 8.56634L8.88515 15.7237L10.2994 17.1379L17.4567 9.98056L16.0425 8.56634ZM7.72779 3.98056L8.88515 5.13791L10.2994 3.7237L9.14201 2.56634L7.72779 3.98056ZM10.2994 5.13791L11.4567 3.98055L10.0425 2.56634L8.88515 3.7237L10.2994 5.13791ZM13.7496 1.03081C12.3592 1.03081 11.0257 1.58316 10.0425 2.56634L11.4567 3.98055C12.0648 3.37244 12.8896 3.03081 13.7496 3.03081V1.03081ZM16.9923 6.27345C16.9923 7.13345 16.6506 7.95823 16.0425 8.56634L17.4567 9.98056C18.4399 8.99737 18.9923 7.66388 18.9923 6.27345H16.9923ZM18.9923 6.27345C18.9923 3.37802 16.645 1.03081 13.7496 1.03081V3.03081C15.5405 3.03081 16.9923 4.48259 16.9923 6.27345H18.9923ZM5.4349 3.03081C6.2949 3.03081 7.11968 3.37244 7.72779 3.98056L9.14201 2.56634C8.15882 1.58316 6.82534 1.03081 5.4349 1.03081V3.03081ZM2.19226 6.27345C2.19226 4.48259 3.64404 3.03081 5.4349 3.03081V1.03081C2.53947 1.03081 0.192261 3.37802 0.192261 6.27345H2.19226ZM3.14201 8.56634C2.53389 7.95823 2.19226 7.13345 2.19226 6.27345H0.192261C0.192261 7.66388 0.744607 8.99737 1.72779 9.98055L3.14201 8.56634Z" fill="#555B6A"/>
</svg>
