<svg width="30" height="33" viewBox="0 0 30 33" fill="none" xmlns="http://www.w3.org/2000/svg">
<path d="M3.3606 5.92942L4.28033 4.74447C3.82797 4.39336 3.21518 4.33043 2.7009 4.58227C2.18662 4.83411 1.8606 5.35678 1.8606 5.92942H3.3606ZM3.3606 27.0589H1.8606C1.8606 27.6316 2.18662 28.1542 2.7009 28.4061C3.21518 28.6579 3.82797 28.595 4.28033 28.2439L3.3606 27.0589ZM16.9718 16.4942L17.8915 17.6791C18.2576 17.395 18.4718 16.9576 18.4718 16.4942C18.4718 16.0308 18.2576 15.5934 17.8915 15.3092L16.9718 16.4942ZM1.8606 5.92942V27.0589H4.8606V5.92942H1.8606ZM4.28033 28.2439L17.8915 17.6791L16.0521 15.3092L2.44086 25.874L4.28033 28.2439ZM17.8915 15.3092L4.28033 4.74447L2.44086 7.11436L16.0521 17.6791L17.8915 15.3092ZM25.1941 4.87294V28.1154H28.1941V4.87294H25.1941Z" fill="#EAF0FF"/>
</svg>
