<svg width="21" height="21" viewBox="0 0 21 21" fill="none" xmlns="http://www.w3.org/2000/svg">
<path d="M5.94296 8.9815L6.93291 9.12292L6.93291 9.12292L5.94296 8.9815ZM5.92956 9.07531L4.93961 8.93389L4.93961 8.93389L5.92956 9.07531ZM15.0743 8.98151L16.0643 8.84009L16.0643 8.84009L15.0743 8.98151ZM15.0877 9.07531L14.0978 9.21673L14.0978 9.21674L15.0877 9.07531ZM13.1753 17.0217V18.0217C13.7276 18.0217 14.1753 17.574 14.1753 17.0217H13.1753ZM7.842 17.0217H6.842C6.842 17.574 7.28972 18.0217 7.842 18.0217V17.0217ZM6.84931 12.5589L7.64011 11.9468L6.84931 12.5589ZM14.168 12.5589L13.3772 11.9468L14.168 12.5589ZM8.50867 20.6884H12.5087V18.6884H8.50867V20.6884ZM4.95301 8.84008L4.93961 8.93389L6.91951 9.21673L6.93291 9.12292L4.95301 8.84008ZM10.5086 4.02171C7.71582 4.02171 5.34798 6.07531 4.95301 8.84008L6.93291 9.12292C7.18712 7.34346 8.71111 6.02171 10.5086 6.02171V4.02171ZM16.0643 8.84009C15.6693 6.07532 13.3015 4.02171 10.5086 4.02171V6.02171C12.3062 6.02171 13.8302 7.34346 14.0844 9.12293L16.0643 8.84009ZM16.0777 8.9339L16.0643 8.84009L14.0844 9.12292L14.0978 9.21673L16.0777 8.9339ZM14.9588 13.171C15.851 12.0183 16.3033 10.5132 16.0777 8.93389L14.0978 9.21674C14.2434 10.2361 13.9537 11.202 13.3772 11.9468L14.9588 13.171ZM12.1753 14.8901V17.0217H14.1753V14.8901H12.1753ZM13.1753 16.0217H7.842V18.0217H13.1753V16.0217ZM8.842 17.0217V14.8902H6.842V17.0217H8.842ZM4.93961 8.93389C4.714 10.5132 5.16634 12.0183 6.05852 13.171L7.64011 11.9468C7.06365 11.2021 6.77388 10.2361 6.91951 9.21673L4.93961 8.93389ZM8.842 14.8902C8.842 13.6752 8.19767 12.6672 7.64011 11.9468L6.05852 13.171C6.56039 13.8194 6.842 14.3742 6.842 14.8902H8.842ZM13.3772 11.9468C12.8197 12.6672 12.1753 13.6752 12.1753 14.8901H14.1753C14.1753 14.3742 14.4569 13.8194 14.9588 13.171L13.3772 11.9468ZM9.50867 0.355042V3.02171H11.5087V0.355042H9.50867ZM0.508667 11.355H3.17533V9.35504H0.508667V11.355ZM17.842 11.355H20.5087V9.35504H17.842V11.355ZM5.21577 4.98127L3.21577 2.98127L1.80156 4.39548L3.80156 6.39548L5.21577 4.98127ZM17.2158 6.39548L19.2158 4.39548L17.8016 2.98127L15.8016 4.98127L17.2158 6.39548Z" fill="#8996B8" fill-opacity="0.6"/>
</svg>
