<svg width="33" height="31" viewBox="0 0 33 31" fill="none" xmlns="http://www.w3.org/2000/svg">
<g filter="url(#filter0_d_1_2491)">
<path d="M28.8907 5.98934L15.2907 5.98934M15.2907 5.98934C15.2907 4.22203 13.8581 2.78934 12.0907 2.78934C10.3234 2.78934 8.89075 4.22203 8.89075 5.98934M15.2907 5.98934C15.2907 7.75665 13.8581 9.18934 12.0907 9.18934C10.3234 9.18934 8.89075 7.75665 8.89075 5.98934M8.89075 5.98934L4.89075 5.98934M28.8907 18.7893L24.8907 18.7893M24.8907 18.7893C24.8907 17.022 23.4581 15.5893 21.6907 15.5893C19.9234 15.5893 18.4907 17.022 18.4907 18.7893M24.8907 18.7893C24.8907 20.5566 23.4581 21.9893 21.6907 21.9893C19.9234 21.9893 18.4907 20.5566 18.4907 18.7893M18.4907 18.7893L4.89075 18.7893" stroke="#EAF0FF" stroke-width="2"/>
</g>
<defs>
<filter id="filter0_d_1_2491" x="0.890747" y="0.389343" width="32" height="32" filterUnits="userSpaceOnUse" color-interpolation-filters="sRGB">
<feFlood flood-opacity="0" result="BackgroundImageFix"/>
<feColorMatrix in="SourceAlpha" type="matrix" values="0 0 0 0 0 0 0 0 0 0 0 0 0 0 0 0 0 0 127 0" result="hardAlpha"/>
<feOffset dy="4"/>
<feGaussianBlur stdDeviation="2"/>
<feComposite in2="hardAlpha" operator="out"/>
<feColorMatrix type="matrix" values="0 0 0 0 0 0 0 0 0 0 0 0 0 0 0 0 0 0 0.25 0"/>
<feBlend mode="normal" in2="BackgroundImageFix" result="effect1_dropShadow_1_2491"/>
<feBlend mode="normal" in="SourceGraphic" in2="effect1_dropShadow_1_2491" result="shape"/>
</filter>
</defs>
</svg>
